<?xml version="1.0" encoding="UTF-8"?>
<svg id="Calque_1" xmlns="http://www.w3.org/2000/svg" version="1.1" xmlns:xlink="http://www.w3.org/1999/xlink" viewBox="0 0 595.3 595.3">
  <!-- Generator: Adobe Illustrator 29.0.0, SVG Export Plug-In . SVG Version: 2.1.0 Build 186)  -->
  <defs>
    <style>
      .st0 {
        fill: #052251;
        stroke: #052251;
      }

      .st0, .st1 {
        stroke-miterlimit: 10;
      }

      .st2 {
        fill: url(#Dégradé_sans_nom_7);
      }

      .st3 {
        fill: #0564b8;
      }

      .st4 {
        fill: url(#Dégradé_sans_nom_6);
      }

      .st5 {
        fill: #fff;
      }

      .st6 {
        fill: url(#Dégradé_sans_nom_71);
      }

      .st1 {
        fill: #f7f3ee;
        isolation: isolate;
        stroke: #d6d0c7;
        stroke-width: 2px;
      }

      .st7 {
        fill: url(#Dégradé_sans_nom_4);
      }

      .st8 {
        fill: #0e3f6b;
      }

      .st9 {
        fill: url(#Dégradé_sans_nom_61);
      }

      .st10 {
        fill: url(#Dégradé_sans_nom_62);
      }

      .st11 {
        fill: url(#Dégradé_sans_nom_5);
      }

      .st12 {
        fill: #0368b4;
      }
    </style>
    <linearGradient id="Dégradé_sans_nom_7" data-name="Dégradé sans nom 7" x1="312.7" y1="2844.5" x2="422.7" y2="2844.5" gradientTransform="translate(0 3145.3) scale(1 -1)" gradientUnits="userSpaceOnUse">
      <stop offset="0" stop-color="#37a338"/>
      <stop offset=".5" stop-color="#67b238"/>
      <stop offset=".9" stop-color="#75b735"/>
    </linearGradient>
    <linearGradient id="Dégradé_sans_nom_6" data-name="Dégradé sans nom 6" x1="205.3" y1="-1353.1" x2="329.1" y2="-1647.1" gradientTransform="translate(0 1700)" gradientUnits="userSpaceOnUse">
      <stop offset="0" stop-color="#052251"/>
      <stop offset=".5" stop-color="#1488c8"/>
      <stop offset="1" stop-color="#19a1dc"/>
    </linearGradient>
    <linearGradient id="Dégradé_sans_nom_61" data-name="Dégradé sans nom 6" x1="320.1" y1="-1680.4" x2="311.4" y2="-1466.6" xlink:href="#Dégradé_sans_nom_6"/>
    <linearGradient id="Dégradé_sans_nom_4" data-name="Dégradé sans nom 4" x1="316.1" y1="-1363.9" x2="234" y2="-1532.6" gradientTransform="translate(0 1700)" gradientUnits="userSpaceOnUse">
      <stop offset="0" stop-color="#0368b4"/>
      <stop offset=".5" stop-color="#76c3ec"/>
      <stop offset="1" stop-color="#6bc8f0"/>
    </linearGradient>
    <linearGradient id="Dégradé_sans_nom_5" data-name="Dégradé sans nom 5" x1="274.6" y1="-1339.8" x2="324.5" y2="-1516.6" gradientTransform="translate(0 1700)" gradientUnits="userSpaceOnUse">
      <stop offset="0" stop-color="#052251"/>
      <stop offset=".3" stop-color="#056ab5"/>
      <stop offset=".5" stop-color="#0d81c5"/>
      <stop offset=".6" stop-color="#1393d2"/>
      <stop offset=".8" stop-color="#179dd9"/>
      <stop offset=".9" stop-color="#19a1dc"/>
    </linearGradient>
    <linearGradient id="Dégradé_sans_nom_62" data-name="Dégradé sans nom 6" x1="220.9" y1="-1402.9" x2="295.6" y2="-1649.7" xlink:href="#Dégradé_sans_nom_6"/>
    <linearGradient id="Dégradé_sans_nom_71" data-name="Dégradé sans nom 7" x1="375.4" y1="2958.4" x2="433.9" y2="2958.4" xlink:href="#Dégradé_sans_nom_7"/>
  </defs>
  <circle class="st1" cx="297.6" cy="297.6" r="294.8"/>
  <g>
    <g>
      <path class="st2" d="M312.7,380.8l14.5-4.4c27.8-10.1,51.4-29.4,66.8-53.8,17.9-28.3,22.6-63.6,11.4-95.1l9-6.8c3.2,8.3,5.7,16.9,7,25.7,4.6,32.1-3.6,64.3-24.3,90.1-20.3,25.2-50.7,41.7-84.1,44.6l-.2-.2h0Z"/>
      <path class="st4" d="M279.9,379.2c.6,0,2.7.3,2.9-.4-51.1-9.3-94.4-46.4-106.3-95.2-12.6-51.9,13.1-105.4,62.6-129.6,2.8-1.4,9.1-3.4,11.1-5,2.3-1.8,2.4-5-1.1-4.8-2.2.1-7.1,1.9-9.3,2.7-27.5,9.5-50.8,31.2-64.1,55.7-41.9,77.3,12.6,171.9,104.1,176.6h0Z"/>
      <path class="st9" d="M261.3,204.3c-9.6,17.1-15.5,35.2-10.8,54.6,16.2-2.1,32.6,2.2,47.3,8.1,17,6.8,33.7,17.9,53.2,15.2,7.8-1.1,15.7-4.6,21.1-10.1,1.8-31.9-15.2-60.8-34.5-85.7-17.8-23-31.4-39-41.8-66.6-.2-.5,0-1.2-.9-1.1,1.8,35.6-17.4,56.5-33.5,85.5h0q0,0,0,0Z"/>
      <path class="st7" d="M370.6,287.2c.4-.5.7-1,1.5-.9.1-.8.4-1.8.2-2.5-6.2,5.4-15.1,10.3-23.8,11-22.1,1.6-45.9-14.2-66.6-20.7-24-7.5-48.6-5.4-65.8,12.7-.5.6-3.9,4.3-3.5,4.8,15.2-12.4,32.6-14.4,51.9-9.5,24.7,6.3,52.2,31.1,78.6,25.5,2.3-.5,4.1-1.4,6.3-1.9,10.8-6.2,13.4-9.9,21.1-18.6h0c0,0,0,0,0,0h0Z"/>
      <path class="st11" d="M223.2,293.2c-1.7.9-8.5,5.6-9.2,6.9-.7,1.4,1.6,6.2,2.2,7.9,16.2,40,68.7,61.7,111.4,41.3,26.7-12.8,40.6-36.3,44.5-63-.9,0-1.1.4-1.5.9-7.7,8.7-10.3,12.4-21.1,18.6-48.8,28.1-82.9-36.5-126.3-12.6h0Z"/>
      <path class="st10" d="M209.1,278.5c.5.5,4.5-3.6,5.1-4.1,8.8-6.9,21.5-12.9,33.1-14.4-4.9-19.5,1.3-37.6,11.1-54.6,16.7-29,36.3-49.9,34.5-85.5-.2-4-1.3-7.9-1.9-11.9,0-.5-.2-1.2-.8-.5-1.8,7.6-4.1,15.2-7,22.5-11.7,28.9-36.1,50.9-52.7,77.3-13.6,21.6-22.8,45.9-21.4,71.2h0Z"/>
      <path class="st6" d="M433.9,146.9c-8.6,8.3-8.3,21-10.2,31.8-2.2,13.1-7.2,22.5-18.4,30.7-5.5,4.1-11.9,7.1-16.2,12.6l-3.8,5.1c-.6-.2.1-1.8.1-2.3.2-4.3,0-7.7.9-12.1,2.8-15.8,10.8-31,21.5-43.3-.2-.2-1.5.7-1.8.9-14,9.2-23.4,26.2-25.3,42.3-.6,0-.7,0-1-.4-.8-1.2-1.9-4.8-2.3-6.2-2.2-7.4-2.9-15.4-.8-22.9,6.5-23,34-35.3,57.1-36.3v.2h.2,0Z"/>
    </g>
    <path class="st5" d="M92.1,444.5h0l1.8-4.3-1.9,4.3h0Z"/>
    <g>
      <g>
        <path class="st8" d="M182.1,449.4c14.6-15.6,7.2-41.7-14.4-45.3-21.1-3.5-37.6,17-29.1,36.9,6,14.1,23,19.1,36.6,13,3.1,2,6.8,4.9,10.6,5.4,3,.4,6.8-.3,9.9,0l-9.7-6-3.9-3.9h0ZM181.6,433.1c-.3,2.4-3.6,11.5-6.4,11.5-.8,0-4.5-2.3-5.8-2.8-3.4-1.2-7.3-1.9-10.8-1.1l7.5,4.4,3.4,3.2c-17.5,6.6-31.6-12.8-22.5-28.4,10.3-17.7,37-8.3,34.6,13.1h0Z"/>
        <g>
          <path class="st8" d="M221.7,456.3c-6.5,0-11.5-2-15.2-6-3.7-4-5.5-9.8-5.5-17.4v-29.1h8.8v28.8c0,5.3,1.1,9.2,3.2,11.6s5.1,3.6,8.9,3.6,6.8-1.2,8.9-3.6c2.1-2.4,3.1-6.3,3.1-11.6v-28.8h8.7v29.1c0,7.6-1.8,13.4-5.5,17.4s-8.8,6-15.3,6h0Z"/>
          <path class="st8" d="M252.2,455.5l21.4-51.7h8.7l21.4,51.7h-9.3l-18.3-46.6h3.5l-18.4,46.6h-9ZM262,443.6l2.5-7.5h25.6l2.4,7.5h-30.4,0Z"/>
          <path class="st3" d="M314.8,455.5v-51.7h19.5c4.2,0,7.8.7,10.8,2.2,3,1.4,5.3,3.5,6.9,6.3,1.6,2.8,2.5,6,2.5,9.9s-.8,7.1-2.5,9.8-3.9,4.8-6.9,6.4-6.6,2.3-10.8,2.3h-14.6l3.9-4.4v19.3h-8.8ZM323.7,437.2l-3.9-4.7h14.2c3.9,0,6.8-.9,8.8-2.7s3-4.3,3-7.6-1-5.8-3-7.6c-1.9-1.8-4.9-2.7-8.8-2.7h-14.2l3.9-4.7v30h0Z"/>
          <path class="st3" d="M388.8,456.3c-6.5,0-11.5-2-15.2-6-3.7-4-5.5-9.8-5.5-17.4v-29.1h8.8v28.8c0,5.3,1.1,9.2,3.2,11.6,2.1,2.4,5.1,3.6,8.9,3.6s6.8-1.2,8.9-3.6c2.1-2.4,3.1-6.3,3.1-11.6v-28.8h8.7v29.1c0,7.6-1.8,13.4-5.5,17.4s-8.8,6-15.3,6h0Z"/>
          <path class="st3" d="M427.1,455.5v-51.7h19.5c6.3,0,11.3,1.6,14.9,4.9,3.6,3.3,5.4,7.8,5.4,13.5s-.8,7.1-2.5,9.7c-1.6,2.7-3.9,4.8-6.9,6.3-3,1.5-6.6,2.2-10.8,2.2h-14.6l3.9-4.3v19.3h-8.8ZM435.9,437.2l-3.9-4.6h14.2c3.9,0,6.8-.9,8.8-2.7s3-4.4,3-7.6-1-5.8-3-7.6c-1.9-1.8-4.9-2.7-8.8-2.7h-14.2l3.9-4.7v30h0ZM458.2,455.5l-12-18.8h9.4l12.1,18.8h-9.5,0Z"/>
          <path class="st3" d="M481.7,455.5v-51.7h34.7v8.1h-25.9v35.4h26.8v8.1h-35.6,0ZM489.9,433.2v-7.9h23.6v7.9h-23.6Z"/>
        </g>
        <g>
          <path class="st8" d="M107.4,404.4c-1.8.4-6.9-.7-8,.7l-21.5,50.5h9l4.3-11,1.9-4.3.5-1.1,9.7-24.6c1-.2.6.2.8.5,3.3,6.4,5.4,13.9,8.6,20.4l9.7,3.2-15-34.4h0Z"/>
          <path class="st8" d="M127.8,450.1c-3.5-.1-6.9.2-10.3-.8-.4,0-.2.5,0,.8,1.2,3.1,2.7,6.2,3.7,9.3h9.7l-3.2-9.3h0Z"/>
        </g>
      </g>
      <path class="st3" d="M88.3,444.8c3.1-1.8,5.1-7.4,12.2-8.4,5.1-.7,9.2-.4,14,1.2,6.7,2.2,12.3,7.6,20.1,5.2l.2.8c-6.4,4.7-12.4,6.1-20,3-2.1-.9-3.8-2.3-5.9-3.1-5.9-2.5-12.2-2.6-17.8.7,0,0-5.2,1.9-2.9.5h0Z"/>
    </g>
    <rect class="st12" x="80.6" y="480.1" width="48.4" height="2.3"/>
    <path class="st12" d="M514.1,480.1h-47.8v2.3h48.4c0-.9.2-1.8-.6-2.3Z"/>
    <g>
      <path class="st0" d="M145.7,487.9v-10.3h-4.3v-1.4h10.3v1.4h-4.3v10.3h-1.8Z"/>
      <path class="st0" d="M159.1,487.9v-11.7h4.9c1.6,0,2.9.4,3.8,1.1.9.7,1.4,1.7,1.4,3s-.2,1.6-.6,2.2-1,1.1-1.8,1.4c-.8.3-1.7.5-2.8.5h-3.9l.8-.8v4.3h-1.8,0ZM160.9,483.7l-.8-.8h3.8c1.1,0,2-.2,2.6-.7.6-.5.9-1.1.9-1.9s-.3-1.5-.9-1.9-1.4-.7-2.6-.7h-3.8l.8-.8v6.9ZM167.4,487.9l-3.2-4.3h1.9l3.2,4.3h-1.9Z"/>
      <path class="st0" d="M175.5,487.9l5.7-11.7h1.8l5.7,11.7h-1.9l-5-10.8h.7l-5,10.8h-1.8ZM177.9,484.9l.5-1.3h7l.5,1.3h-8,0Z"/>
      <path class="st0" d="M195.8,487.9v-11.7h1.8v11.7h-1.8Z"/>
      <path class="st0" d="M209.1,487.9v-10.3h-4.3v-1.4h10.3v1.4h-4.3v10.3h-1.8Z"/>
      <path class="st0" d="M222.5,487.9v-11.7h8.8v1.4h-7v8.8h7.3v1.4h-9.1ZM224.1,482.6v-1.4h6.4v1.4h-6.4Z"/>
      <path class="st0" d="M239.8,487.9v-11.7h1.5l5.6,8.9h-.8l5.5-8.9h1.5v11.7h-1.7v-9.2h.4l-4.9,7.8h-.8l-5-7.8h.4v9.2h-1.8Z"/>
      <path class="st0" d="M262.2,487.9v-11.7h8.8v1.4h-7v8.8h7.3v1.4h-9.1ZM263.8,482.6v-1.4h6.4v1.4h-6.4Z"/>
      <path class="st0" d="M279.5,487.9v-11.7h1.5l8.3,9.6h-.8v-9.6h1.8v11.7h-1.5l-8.3-9.6h.8v9.6h-1.8Z"/>
      <path class="st0" d="M301.8,487.9v-10.3h-4.3v-1.4h10.3v1.4h-4.3v10.3h-1.8Z"/>
      <path class="st0" d="M325.3,487.9v-11.7h5.3c1.3,0,2.5.2,3.5.7s1.8,1.2,2.4,2.1.9,1.9.9,3.1-.3,2.2-.9,3.1-1.4,1.6-2.4,2.1-2.2.7-3.5.7h-5.3ZM327.1,486.4h3.4c1.1,0,1.9-.2,2.7-.5.7-.4,1.3-.9,1.8-1.6s.6-1.4.6-2.3-.2-1.6-.6-2.3c-.4-.7-1-1.2-1.8-1.6-.7-.4-1.6-.5-2.7-.5h-3.4v8.8h0Z"/>
      <path class="st0" d="M345.3,487.9v-11.7h8.8v1.4h-7v8.8h7.3v1.4h-9.1ZM347,482.6v-1.4h6.4v1.4h-6.4Z"/>
      <path class="st0" d="M366.3,488c-.9,0-1.9-.2-2.7-.4s-1.6-.6-2.1-1.1l.7-1.3c.5.4,1.1.7,1.8,1s1.5.4,2.3.4,1.3,0,1.8-.2c.5-.2.8-.4,1-.7.2-.3.3-.6.3-.9s-.2-.7-.4-1c-.3-.2-.6-.4-1.1-.6-.4-.2-.9-.3-1.5-.4-.5-.1-1.1-.2-1.6-.4-.5-.2-1.1-.4-1.5-.6s-.8-.5-1.1-.9-.4-.9-.4-1.5.2-1.2.5-1.7.9-.9,1.6-1.2c.7-.3,1.6-.5,2.7-.5s1.4,0,2.1.3,1.3.4,1.9.8l-.6,1.3c-.5-.4-1.1-.6-1.7-.7s-1.2-.2-1.7-.2-1.3,0-1.7.2c-.5.2-.8.4-1,.7s-.3.6-.3.9.2.7.4,1c.3.2.6.4,1.1.6.4.2.9.3,1.5.4.5.1,1.1.2,1.6.4.5.2,1.1.4,1.5.6s.8.5,1.1.9.4.9.4,1.5-.2,1.1-.5,1.6c-.4.5-.9.9-1.6,1.2-.7.3-1.6.5-2.7.5h0c0,0,0,0,0,0h0Z"/>
      <path class="st0" d="M389.2,487.9v-11.7h8.8v1.4h-7v8.8h7.3v1.4h-9.1ZM390.8,482.6v-1.4h6.4v1.4h-6.4Z"/>
      <path class="st0" d="M404.6,487.9l5.7-11.7h1.8l5.7,11.7h-1.9l-5-10.8h.7l-5,10.8h-1.8,0ZM407,484.9l.5-1.3h7l.5,1.3h-8,0Z"/>
      <path class="st0" d="M429.8,488c-1.6,0-2.9-.4-3.9-1.3s-1.4-2.2-1.4-3.9v-6.7h1.8v6.6c0,1.3.3,2.3.9,2.9s1.5.9,2.6.9,2-.3,2.6-.9.9-1.6.9-2.9v-6.6h1.7v6.7c0,1.7-.5,3-1.4,3.9s-2.2,1.3-3.9,1.3h0Z"/>
      <path class="st0" d="M442.3,487.9l5.2-6.7v1.3l-4.9-6.4h2l3.9,5h-.8l3.9-5h1.9l-4.9,6.3v-1.2l5.2,6.7h-2.1l-4.1-5.3h.8l-4.1,5.3h-2.1,0Z"/>
    </g>
  </g>
</svg>